{"title":"Metal Gear Solid - Legacy (2015) [1080p] WEB-Dl Rip MP4","uid":12545202,"size":554948627,"categoryP":"video","categoryS":"hd___movies","magnet":"?xt=urn:btih:c1eb6370795a809a4fce8aac5c0469097e9a2b2a&amp;dn=Metal+Gear+Solid+-+Legacy+%282015%29+%5B1080p%5D+WEB-Dl+Rip+MP4&amp;tr=udp%3A%2F%2Ftracker.leechers-paradise.org%3A6969&amp;tr=udp%3A%2F%2Fzer0day.ch%3A1337&amp;tr=udp%3A%2F%2Fopen.demonii.com%3A1337&amp;tr=udp%3A%2F%2Ftracker.coppersurfer.tk%3A6969&amp;tr=udp%3A%2F%2Fexodus.desync.com%3A6969","seeders":0,"leechers":0,"uploader":"LucasCulas","files":1,"time":1444461476,"description":"No subtitles for the japanese dialogue.\r\n\r\n\r\nExclusive footage detailing the cultural legacy of the Metal Gear franchise as seen through the eyes of MGSV's main cast, game critics, journalists, and top-tier creators from both the game and film industries.\r\n\r\nMany thanks to EnimVinco for uploading to YouTube.\r\n\r\n\r\nGeneral\r\nFormat: MPEG-4\r\nFile size: 529 MiB\r\nDuration: 33mn 54s\r\nOverall bit rate: 2 183 Kbps\r\nWriting application: Lavf55.33.100\r\n\r\nVideo\r\nFormat: AVC\r\nBit rate: 2 049 Kbps\r\nWidth: 1 920 pixels\r\nHeight: 1 080 pixels\r\nDisplay aspect ratio: 16:9\r\nFrame rate: 29.970 fps\r\nScan type: Progressive\r\nStream size: 497 MiB (94%)\r\n\r\nAudio\r\nFormat: AAC\r\nBit rate mode: Constant\r\nBit rate: 126 Kbps\r\nChannel(s): 2 channels\r\nSampling rate: 44.1 KHz\r\nCompression mode: Lossy\r\nStream size: 30.5 MiB (6%)","torrent":{"xt":"urn:btih:c1eb6370795a809a4fce8aac5c0469097e9a2b2a","amp;dn":"Metal+Gear+Solid+-+Legacy+%282015%29+%5B1080p%5D+WEB-Dl+Rip+MP4","amp;tr":["udp%3A%2F%2Ftracker.leechers-paradise.org%3A6969","udp%3A%2F%2Fzer0day.ch%3A1337","udp%3A%2F%2Fopen.demonii.com%3A1337","udp%3A%2F%2Ftracker.coppersurfer.tk%3A6969","udp%3A%2F%2Fexodus.desync.com%3A6969"],"infoHash":"c1eb6370795a809a4fce8aac5c0469097e9a2b2a","infoHashBuffer":{"type":"Buffer","data":[193,235,99,112,121,90,128,154,79,206,138,172,92,4,105,9,126,154,43,42]},"announce":[],"urlList":[]}}